HIERARCHY
ROOT root
{
	OFFSET 0.000000 0.000000 0.000000
	CHANNELS 6 Xposition Yposition Zposition Zrotation Yrotation Xrotation
	JOINT lhip
	{
		OFFSET 0.058581 -0.082280 -0.017664
		CHANNELS 3 Zrotation Yrotation Xrotation
		JOINT lknee
		{
			OFFSET 0.043451 -0.386469 0.008037
			CHANNELS 3 Zrotation Yrotation Xrotation
			JOINT lankle
			{
				OFFSET -0.014790 -0.426874 -0.037428
				CHANNELS 3 Zrotation Yrotation Xrotation
				JOINT ltoe
				{
					OFFSET 0.041054 -0.060286 0.122042
					CHANNELS 3 Zrotation Yrotation Xrotation
					End Site
					{
						OFFSET 0.000000 0.000000 0.000000
					}
				}
			}
		}
	}
	JOINT rhip
	{
		OFFSET -0.060310 -0.090513 -0.013543
		CHANNELS 3 Zrotation Yrotation Xrotation
		JOINT rknee
		{
			OFFSET -0.043257 -0.383688 -0.004843
			CHANNELS 3 Zrotation Yrotation Xrotation
			JOINT rankle
			{
				OFFSET 0.019056 -0.420046 -0.034562
				CHANNELS 3 Zrotation Yrotation Xrotation
				JOINT rtoe
				{
					OFFSET -0.034840 -0.062106 0.130323
					CHANNELS 3 Zrotation Yrotation Xrotation
					End Site
					{
						OFFSET 0.000000 0.000000 0.000000
					}
				}
			}
		}
	}
	JOINT lowerback
	{
		OFFSET 0.004439 0.124404 -0.038385
		CHANNELS 3 Zrotation Yrotation Xrotation
		JOINT upperback
		{
			OFFSET 0.004488 0.137956 0.026820
			CHANNELS 3 Zrotation Yrotation Xrotation
			JOINT chest
			{
				OFFSET -0.002265 0.056032 0.002855
				CHANNELS 3 Zrotation Yrotation Xrotation
				JOINT lowerneck
				{
					OFFSET -0.013390 0.211636 -0.033468
					CHANNELS 3 Zrotation Yrotation Xrotation
					JOINT upperneck
					{
						OFFSET 0.010113 0.088937 0.050410
						CHANNELS 3 Zrotation Yrotation Xrotation
						End Site
						{
							OFFSET 0.000000 0.000000 0.000000
						}
					}
				}
				JOINT lclavicle
				{
					OFFSET 0.071702 0.114000 -0.018898
					CHANNELS 3 Zrotation Yrotation Xrotation
					JOINT lshoulder
					{
						OFFSET 0.122921 0.045205 -0.019046
						CHANNELS 3 Zrotation Yrotation Xrotation
						JOINT lelbow
						{
							OFFSET 0.255332 -0.015649 -0.022946
							CHANNELS 3 Zrotation Yrotation Xrotation
							JOINT lwrist
							{
								OFFSET 0.265709 0.012698 -0.007375
								CHANNELS 3 Zrotation Yrotation Xrotation
								End Site
								{
									OFFSET 0.000000 0.000000 0.000000
								}
							}
						}
					}
				}
				JOINT rclavicle
				{
					OFFSET -0.082954 0.112472 -0.023707
					CHANNELS 3 Zrotation Yrotation Xrotation
					JOINT rshoulder
					{
						OFFSET -0.113228 0.046853 -0.008472
						CHANNELS 3 Zrotation Yrotation Xrotation
						JOINT relbow
						{
							OFFSET -0.260127 -0.014369 -0.031269
							CHANNELS 3 Zrotation Yrotation Xrotation
							JOINT rwrist
							{
								OFFSET -0.269108 0.006794 -0.006027
								CHANNELS 3 Zrotation Yrotation Xrotation
								End Site
								{
									OFFSET 0.000000 0.000000 0.000000
								}
							}
						}
					}
				}
			}
		}
	}
}
MOTION
Frames: 14
Frame Time: 0.033333
1.750495 0.767175 0.754294 -91.550939 0.902181 103.507461 8.952868 -7.199827 -55.283182 -11.775219 7.565120 86.671200 3.084703 13.272019 -44.215597 0.000000 -0.000000 0.000000 -3.416546 7.886524 -55.270739 1.016776 -6.838056 88.016915 4.822109 -11.847780 -43.084368 0.000000 -0.000000 0.000000 -2.482562 -0.244482 36.412209 2.127618 0.273672 -7.093426 -0.216975 -1.370110 4.607168 -0.142756 7.711764 -25.175424 2.003704 -3.448564 -13.829422 -28.093675 -2.922363 1.331248 -48.262316 -5.116411 9.803459 8.165340 -37.124296 3.305647 7.635951 -4.014323 -12.366415 28.602730 6.034619 0.391568 49.794802 6.779414 11.657075 -12.710026 22.679886 -3.706791 3.875417 2.111351 -6.958260 
1.726885 0.765820 0.773934 -92.304146 0.727497 102.693924 6.763984 -8.268855 -49.861511 -11.050201 5.705292 83.567139 2.484166 13.656198 -42.510883 0.000000 -0.000000 0.000000 -1.698121 8.283832 -50.282626 0.398368 -4.634031 84.698472 5.188435 -12.432987 -41.914307 0.000000 -0.000000 0.000000 -2.598736 0.240364 34.282079 2.111744 -0.359710 -7.219917 0.024740 -1.330920 4.619366 -0.535726 7.618839 -24.493232 2.065415 -3.105376 -12.639743 -25.380276 -5.937840 1.128122 -50.014984 -8.355013 10.992719 7.638996 -44.252289 3.233932 10.496667 -3.547899 -15.367072 25.341993 8.168052 -0.747911 51.751340 8.801775 13.779641 -16.508480 35.682728 -5.798255 1.739328 2.177144 -10.906203 
1.693601 0.765016 0.808530 -92.356561 0.250400 100.649562 3.446460 -8.837605 -40.537801 -10.199642 3.034213 76.956710 2.621236 14.338306 -40.190223 0.000000 -0.000000 0.000000 0.006414 7.535518 -41.551372 0.108529 -2.392626 78.443565 5.382593 -12.042635 -38.846178 0.000000 -0.000000 0.000000 -2.421096 0.799860 31.831372 2.016653 -0.996789 -7.257533 0.229790 -1.251009 4.307850 -0.619224 8.100570 -22.810742 1.913615 -2.001287 -10.499780 -21.588013 -8.447507 0.089495 -50.180251 -10.175357 12.322724 4.235950 -53.103122 9.295872 8.668322 -4.627472 -15.862976 21.138933 9.039454 -2.874579 52.988004 8.609317 15.796966 -21.731576 50.112202 -6.389898 4.056430 3.291444 -11.752667 
1.644548 0.763788 0.862064 -94.520916 -1.237013 96.095334 -1.559604 -4.960801 -24.968585 -9.730927 -0.723705 65.123952 2.337515 13.609322 -34.945102 0.000000 -0.000000 0.000000 0.761905 5.289814 -28.061536 -0.475476 1.285527 68.570955 6.287962 -9.659827 -32.277669 0.000000 -0.000000 0.000000 -3.817004 3.208197 30.607063 1.240529 -1.457261 -7.750416 1.094764 -1.190109 3.778288 -0.595881 8.473566 -18.902390 2.508990 0.212946 -8.385444 -17.030897 -9.676151 -0.942451 -50.204290 -10.539105 12.378383 -2.242152 -61.214278 19.447285 10.868569 -6.469606 -13.533905 16.101582 9.111197 -5.114145 54.601422 7.024068 16.383778 -26.812121 62.475001 -7.337666 3.125750 4.351247 -9.856135 
1.593527 0.763884 0.927946 -93.401304 -0.528052 95.735677 -0.571415 -2.782111 -15.217760 -10.189842 -3.499699 51.898583 1.064326 9.933650 -22.592564 0.000000 -0.000000 0.000000 0.831936 2.031233 -18.783875 0.099933 0.987286 55.138766 5.702221 -7.025641 -19.223853 0.000000 -0.000000 0.000000 -3.051269 2.594929 21.368095 1.477103 -2.055243 -4.553562 0.913566 -0.975029 3.993191 0.111817 6.733384 -12.367468 3.291884 1.123212 -9.230670 -12.242844 -8.412333 -1.990991 -51.228974 -11.865288 13.849931 -8.462573 -66.862441 28.572796 11.263964 -7.346363 -15.016531 11.426579 6.946806 -6.170231 55.762741 6.703633 17.556337 -32.091388 71.675713 -10.191213 2.563946 4.540355 -12.101117 
1.535703 0.764773 1.010442 -91.137934 0.319666 95.467356 1.793382 -1.644588 -4.578325 -8.925990 -6.600557 33.483835 -4.408841 5.305983 -0.402465 0.000000 -0.000000 0.000000 -0.040603 -1.441139 -7.478096 0.907392 0.022772 35.453594 7.057468 -3.143812 4.435814 0.000000 -0.000000 0.000000 -2.057085 1.938931 11.490387 2.039715 -3.258872 0.273065 1.001824 -1.089171 2.918515 0.034290 4.564331 -6.161553 3.815747 3.451383 -5.983557 -11.104008 -7.389243 -0.326185 -50.880096 -12.297967 14.540368 -11.505836 -70.879880 31.485052 11.308928 -8.600268 -15.307532 8.800565 4.806360 -4.106075 55.876193 5.180965 17.328068 -41.153461 76.615886 -19.569198 2.214971 6.156083 -15.229977 
1.476622 0.762184 1.098295 -90.829962 0.441382 95.613768 1.973395 1.603342 2.854399 -2.141687 -6.372502 14.718389 -15.083298 5.266647 31.391592 0.000000 -0.000000 0.000000 -1.054959 -4.883971 0.431011 -0.697408 0.561635 16.293618 11.944809 -2.479575 36.914813 0.000000 -0.000000 0.000000 -2.307383 1.889520 4.984446 1.680839 -3.904900 0.800138 2.375216 -0.729532 1.813073 -4.763994 -2.500113 4.123413 6.373803 7.483113 -6.831663 -10.139025 -6.369402 3.183097 -52.327442 -10.502575 13.092750 -18.157543 -74.292013 37.599601 10.026052 -9.760157 -14.474588 4.998596 4.026149 -0.599862 57.642723 1.020623 14.901613 -42.156299 80.733512 -23.149594 2.092274 6.129556 -15.640993 
1.433230 0.758954 1.174781 -89.672307 0.370122 96.808146 1.190144 0.396262 0.996253 -1.344019 -5.500073 13.946938 -13.152107 7.629664 32.228994 0.000000 -0.000000 0.000000 -1.578847 -5.757251 -0.491857 0.088316 -1.831990 14.441519 11.845257 -5.347624 41.214933 0.000000 -0.000000 0.000000 -2.085521 1.246548 0.942053 1.751920 -4.435133 1.344620 2.597681 -0.797624 1.698842 -4.961131 -4.988005 7.208553 4.728280 9.907583 -12.414597 -11.509522 -4.071484 4.338960 -50.935303 -10.383457 12.206916 -27.450876 -76.032187 46.754328 8.490267 -9.439395 -15.230806 5.475773 2.098444 2.609433 55.302303 0.288619 14.019893 -38.082046 83.150298 -18.068884 3.823358 6.287930 -15.411905 
1.401112 0.758764 1.241163 -89.320383 0.455093 94.610501 0.960164 -1.244745 -0.655466 -4.864920 -3.886123 21.035626 -13.470905 7.113174 30.154111 0.000000 -0.000000 0.000000 -0.559313 -3.940877 -1.683251 -1.088560 -3.098231 21.638598 8.477346 -7.333277 38.461644 0.000000 -0.000000 0.000000 -1.852994 1.492824 4.045777 2.323169 -3.748213 1.490908 2.288482 -0.843469 0.803505 -4.286458 -7.430490 7.830492 3.603824 7.988727 -7.845116 -13.880115 -3.556787 3.940119 -49.664589 -10.495420 12.649313 -21.516956 -75.265611 39.835042 6.587167 -9.647882 -14.827098 8.010962 1.260118 1.700632 52.933377 -2.635693 15.092722 -29.351159 80.552071 -10.098247 5.178421 5.797103 -14.597852 
1.370373 0.759324 1.296853 -88.769071 0.457666 91.473973 0.381085 0.361468 -2.331315 -6.545840 -3.028796 29.143260 -13.687613 6.344958 26.928920 0.000000 -0.000000 0.000000 -0.147112 -4.458960 -2.280812 -1.464406 -2.049860 28.137818 9.550718 -5.207308 34.550468 0.000000 -0.000000 0.000000 -1.312090 1.356340 8.316354 2.036646 -3.661903 1.282874 1.979397 -0.936490 2.065551 -4.535935 -7.088749 10.502526 2.822654 6.796623 -5.983444 -14.803303 -3.298000 3.260007 -50.880546 -10.420967 12.389211 -13.445531 -72.016717 29.938189 7.741486 -7.795513 -14.163245 9.233598 1.039344 0.887281 52.985838 -2.476232 14.666980 -10.919809 73.296321 5.660437 4.326956 4.647598 -12.473755 
1.339809 0.761398 1.340844 -88.850543 0.698532 90.068149 0.823675 0.094978 -5.327621 -6.491291 1.169839 34.772599 -13.593525 5.941215 25.666221 0.000000 -0.000000 0.000000 0.429552 -3.185601 -3.773608 -0.324706 -0.684569 29.874924 7.758316 -5.030379 33.942257 0.000000 -0.000000 0.000000 -1.427773 1.369623 9.720643 2.291372 -3.487764 3.673761 1.847517 -1.108539 2.578976 -3.651685 -8.235447 9.230932 2.380663 5.798674 -5.435112 -16.500934 -2.903363 2.695949 -52.068085 -10.151321 12.921784 -5.261908 -68.325394 21.237274 5.806166 -6.947273 -11.971774 10.996833 1.497163 1.009969 52.761282 -1.101629 15.080819 -8.841707 64.388688 7.176052 16.823954 2.754219 -9.627004 
1.309763 0.762991 1.375568 -88.846233 0.973746 89.229311 0.979971 -1.739375 -8.148258 -6.957185 1.965553 38.356059 -11.834662 7.289895 23.805553 0.000000 -0.000000 0.000000 0.785393 -1.567835 -5.298219 -0.557749 -2.003960 28.901854 8.393065 -4.642412 29.399939 0.000000 -0.000000 0.000000 -1.453836 1.541701 11.183483 2.493654 -3.640540 5.089367 1.530656 -1.128302 2.479456 -2.001547 -6.779363 8.980920 1.313380 2.960131 -4.461569 -19.126328 -2.523438 3.048099 -51.706714 -9.856601 13.596656 -2.215771 -63.915774 18.119298 5.818794 -6.808036 -8.729547 14.794435 2.067674 1.812519 50.953461 0.936041 15.301942 -4.733226 55.310740 9.848881 5.424695 3.448553 -5.399737 
1.278264 0.763199 1.399320 -87.930241 1.176855 88.843217 1.039643 -3.421378 -11.216783 -6.651603 1.392625 40.358294 -10.759849 7.756021 22.314708 0.000000 -0.000000 0.000000 0.662227 -1.840734 -6.619080 -0.787259 -3.137138 26.287944 8.095241 -4.605720 26.964847 0.000000 -0.000000 0.000000 -1.558002 1.638188 12.716538 2.729854 -4.204812 5.253931 1.666683 -1.134329 1.836524 -2.830422 -5.940903 13.079424 1.151798 2.504768 -4.277084 -21.362319 -2.308292 4.510129 -52.109939 -9.261154 13.748485 -1.113079 -59.104208 17.166567 3.401079 -6.591631 -7.200872 17.189105 2.651096 3.162281 50.392167 0.983757 14.863392 -3.886741 48.034228 10.868484 5.491350 2.164949 -3.746334 
1.246887 0.765741 1.411980 -88.619469 1.260658 88.436514 1.708455 -3.963207 -13.469828 -6.730724 1.125174 40.360851 -10.098844 7.212061 21.345773 0.000000 -0.000000 0.000000 0.534575 -1.527467 -8.522947 -0.980717 -3.880067 24.743298 7.761194 -4.714829 26.403226 0.000000 -0.000000 0.000000 -2.158609 2.342303 14.071062 2.724265 -3.967863 5.435628 1.763617 -0.925665 1.737591 -2.173854 -7.076918 14.075430 1.786387 0.252463 -3.784555 -22.509619 -1.888101 5.350142 -53.571181 -8.536837 13.630058 0.606324 -53.855536 14.968226 1.338470 -6.539488 -6.978054 18.667099 2.801067 4.474358 51.586131 1.488056 14.260627 -4.219297 41.440531 11.069020 7.262841 1.189028 -1.418217 
